<svg xmlns="http://www.w3.org/2000/svg" viewBox="0 0 288.13 135.42"><defs><style>.cls-1{fill:#fff;}.cls-2{fill:#231f20;}</style></defs><title>Asset 2</title><g id="Layer_2" data-name="Layer 2"><g id="Layer_1-2" data-name="Layer 1"><path class="cls-1" d="M67.71,0H220.42a67.71,67.71,0,0,1,67.71,67.71h0a67.72,67.72,0,0,1-67.71,67.71H67.71A67.71,67.71,0,0,1,0,67.71H0A67.7,67.7,0,0,1,67.71,0Z"/><path class="cls-2" d="M174.14,21.37a40.46,40.46,0,0,0-10.68-8.49,37.57,37.57,0,0,0-15.35-4.11c-1-.09-2.08-.13-3.1-.13A37.45,37.45,0,0,0,118.21,20c-5.79,5.79-12.49,15.59-11.51,29.35.73,10.16,6.56,18.15,11.23,24.57l.2.28c.84,1.14,1.7,2.26,2.62,3.45,2.9,3.74,5.89,7.6,8,12.51l.25.56c.88,2,2,4.47,1.84,5.74a3,3,0,0,1-1,1.87,3.34,3.34,0,0,0-.91,3.52c.66,2.48,3.78,2.48,7.4,2.48h18.85c3,0,6.06,0,6.72-2.48a3.75,3.75,0,0,0-1.06-3.75,3,3,0,0,1-.8-1.4c-.35-2.49,2.34-8.14,5-12.34a85.45,85.45,0,0,1,5.21-7.18c.8-1,1.56-2,2.28-3,.38-.51.76-1,1.15-1.54,4.81-6.45,9.78-13.12,10.55-23A37,37,0,0,0,174.14,21.37ZM167,69.2c-.34.46-.69.91-1,1.36q-.9,1.2-1.8,2.37c-5.4,7.06-10.51,13.74-11.7,23.89H138.55c-1.49-10.73-6.69-17.58-12.2-24.82-.42-.57-.85-1.13-1.29-1.7l-.73-1c-4.29-5.65-9.15-12.06-9.85-19.56a29.69,29.69,0,0,1,9.16-24.58,30.41,30.41,0,0,1,21.94-9c1,0,1.95,0,2.94.12a30.76,30.76,0,0,1,28,28.25c.79,11-4.47,18-9.55,24.67Z"/><path class="cls-2" d="M156.83,116.63a29.89,29.89,0,0,0-5.67-.37c-1.41,0-2.93,0-4.41.06s-3,.06-4.34.06l-1.9,0-2.08,0c-2.46,0-7.59,0-7.83,3.23a2.6,2.6,0,0,0,.85,2.21c1.41,1.29,4.24,1.46,6.83,1.46,1.2,0,2.46,0,3.68-.08s2.34-.09,3.4-.09h2.54c2,0,4.19,0,6.06,0,3.19,0,6.2,0,6.43-2.95C160.61,117.43,158.43,117,156.83,116.63Z"/></g></g></svg>