<svg xmlns="http://www.w3.org/2000/svg" viewBox="0 0 92.2 92.2"><defs><style>.cls-1{fill:#fff;}</style></defs><title>Asset 3</title><g id="Layer_2" data-name="Layer 2"><g id="Layer_1-2" data-name="Layer 1"><path class="cls-1" d="M80.3,50.89a14.43,14.43,0,0,1-3.09-.55,44.12,44.12,0,0,1-6-1.81,9.22,9.22,0,0,0-11.44,4.63l-1,2.13A61.1,61.1,0,0,1,46.39,46a60.93,60.93,0,0,1-9.22-12.36l2.12-1a9.2,9.2,0,0,0,4.5-4.85,9.32,9.32,0,0,0,.12-6.62,48.61,48.61,0,0,1-1.81-6.11c-.23-1-.41-2.08-.55-3.1A13.86,13.86,0,0,0,27.71.51H13.83A13.74,13.74,0,0,0,3.5,5.14,13.75,13.75,0,0,0,.6,10.32a13.93,13.93,0,0,0-.47,5.92,88.34,88.34,0,0,0,25,50.89,87.92,87.92,0,0,0,50.75,25,13.37,13.37,0,0,0,1.79,0A13.8,13.8,0,0,0,90.26,84a13.68,13.68,0,0,0,1.2-5.67V64.4A13.88,13.88,0,0,0,80.3,50.89Zm2.26,27.77a4.65,4.65,0,0,1-5.3,4.58,79.07,79.07,0,0,1-45.53-22.4A79.44,79.44,0,0,1,9.22,15a4.65,4.65,0,0,1,2.71-4.93,4.46,4.46,0,0,1,1.9-.39H27.67a4.59,4.59,0,0,1,4.61,3.61A18.12,18.12,0,0,0,33,17.12a52,52,0,0,0,2.12,7.12L28.63,27.3a4.61,4.61,0,0,0-2.39,2.59,4.66,4.66,0,0,0,0,3.52A67,67,0,0,0,58.53,65.79a4.52,4.52,0,0,0,3.5,0,4.59,4.59,0,0,0,2.59-2.4l2.9-6.48A57.91,57.91,0,0,0,74.81,59c1.2.28,2.49.51,3.74.69a4.64,4.64,0,0,1,3.6,4.63ZM55.34,0H52.11A4.63,4.63,0,0,0,47.9,5a4.61,4.61,0,0,0,5,4.23h2.44A27.71,27.71,0,0,1,83,37v2.46a4.61,4.61,0,0,0,4.2,5h.37a4.57,4.57,0,0,0,3.12-1.2,4.63,4.63,0,0,0,1.49-3V37A37,37,0,0,0,55.34,0Zm9.23,37a4.61,4.61,0,0,0,4.61,4.63A4.63,4.63,0,0,0,73.8,37a18.49,18.49,0,0,0-18.46-18.5,4.6,4.6,0,0,0-3.26,1.35,4.63,4.63,0,0,0,3.26,7.9A9.24,9.24,0,0,1,64.57,37Z"/></g></g></svg>