<svg xmlns="http://www.w3.org/2000/svg" viewBox="0 0 288.13 135.42"><defs><style>.cls-1{fill:#fff;}</style></defs><title>Asset 1</title><g id="Layer_2" data-name="Layer 2"><g id="Layer_1-2" data-name="Layer 1"><path class="cls-1" d="M67.71,0H220.42a67.71,67.71,0,0,1,67.71,67.71h0a67.72,67.72,0,0,1-67.71,67.71H67.71A67.71,67.71,0,0,1,0,67.71H0A67.7,67.7,0,0,1,67.71,0Z"/><path d="M160.08,29.77a3.69,3.69,0,0,0,0-.47,12.12,12.12,0,0,0-3.75-8.51,12.76,12.76,0,0,0-17.55,0,12.22,12.22,0,0,0-3.77,8.5c1,6.06,3.5,8,5.47,12.45l-27.41-.52-.54,26.59c-5.19-2-8.92-5.54-13.33-5.63a3.84,3.84,0,0,0-.48,0A12.71,12.71,0,0,0,90,65.85,12.07,12.07,0,0,0,90,83a12.68,12.68,0,0,0,8.69,3.69c6.56-1,8.36-3.73,13.56-5.69l-.55,27.17,27.53.53c-2-4.66-4.59-6.53-5.57-12.7a12.12,12.12,0,0,1,3.77-8.5,12.75,12.75,0,0,1,17.54,0A12.12,12.12,0,0,1,158.73,96a3.53,3.53,0,0,1,0,.46c-.08,4.14-3.45,7.69-5.52,12.49l27,.52,1.35-67L154.66,42C156.75,37.33,160,33.84,160.08,29.77Z"/></g></g></svg>